<mxfile host="Electron" agent="Mozilla/5.0 (Windows NT 10.0; Win64; x64) AppleWebKit/537.36 (KHTML, like Gecko) draw.io/26.0.16 Chrome/132.0.6834.196 Electron/34.2.0 Safari/537.36" version="26.0.16">
  <diagram name="Page-1" id="8_qPZPGI7MBzLSVeNLLm">
    <mxGraphModel dx="1714" dy="508" grid="1" gridSize="10" guides="1" tooltips="1" connect="1" arrows="1" fold="1" page="1" pageScale="1" pageWidth="850" pageHeight="1100" math="0" shadow="0">
      <root>
        <mxCell id="0" />
        <mxCell id="1" parent="0" />
        <mxCell id="ngl5nq17TZZWhM0TqUHY-52" value="" style="shape=table;startSize=0;container=1;collapsible=0;childLayout=tableLayout;" parent="1" vertex="1">
          <mxGeometry x="-20" y="130" width="420" height="330" as="geometry" />
        </mxCell>
        <mxCell id="ngl5nq17TZZWhM0TqUHY-53" value="" style="shape=tableRow;horizontal=0;startSize=0;swimlaneHead=0;swimlaneBody=0;strokeColor=inherit;top=0;left=0;bottom=0;right=0;collapsible=0;dropTarget=0;fillColor=none;points=[[0,0.5],[1,0.5]];portConstraint=eastwest;" parent="ngl5nq17TZZWhM0TqUHY-52" vertex="1">
          <mxGeometry width="420" height="76" as="geometry" />
        </mxCell>
        <mxCell id="ngl5nq17TZZWhM0TqUHY-55" value="Input" style="shape=partialRectangle;html=1;whiteSpace=wrap;connectable=0;strokeColor=inherit;overflow=hidden;fillColor=none;top=0;left=0;bottom=0;right=0;pointerEvents=1;" parent="ngl5nq17TZZWhM0TqUHY-53" vertex="1">
          <mxGeometry width="140" height="76" as="geometry">
            <mxRectangle width="140" height="76" as="alternateBounds" />
          </mxGeometry>
        </mxCell>
        <mxCell id="ngl5nq17TZZWhM0TqUHY-56" value="Process" style="shape=partialRectangle;html=1;whiteSpace=wrap;connectable=0;strokeColor=inherit;overflow=hidden;fillColor=none;top=0;left=0;bottom=0;right=0;pointerEvents=1;" parent="ngl5nq17TZZWhM0TqUHY-53" vertex="1">
          <mxGeometry x="140" width="140" height="76" as="geometry">
            <mxRectangle width="140" height="76" as="alternateBounds" />
          </mxGeometry>
        </mxCell>
        <mxCell id="ngl5nq17TZZWhM0TqUHY-54" value="Output" style="shape=partialRectangle;html=1;whiteSpace=wrap;connectable=0;strokeColor=inherit;overflow=hidden;fillColor=none;top=0;left=0;bottom=0;right=0;pointerEvents=1;" parent="ngl5nq17TZZWhM0TqUHY-53" vertex="1">
          <mxGeometry x="280" width="140" height="76" as="geometry">
            <mxRectangle width="140" height="76" as="alternateBounds" />
          </mxGeometry>
        </mxCell>
        <mxCell id="ngl5nq17TZZWhM0TqUHY-57" value="" style="shape=tableRow;horizontal=0;startSize=0;swimlaneHead=0;swimlaneBody=0;strokeColor=inherit;top=0;left=0;bottom=0;right=0;collapsible=0;dropTarget=0;fillColor=none;points=[[0,0.5],[1,0.5]];portConstraint=eastwest;" parent="ngl5nq17TZZWhM0TqUHY-52" vertex="1">
          <mxGeometry y="76" width="420" height="85" as="geometry" />
        </mxCell>
        <mxCell id="ngl5nq17TZZWhM0TqUHY-58" value="Magwinya" style="shape=partialRectangle;html=1;whiteSpace=wrap;connectable=0;strokeColor=inherit;overflow=hidden;fillColor=none;top=0;left=0;bottom=0;right=0;pointerEvents=1;" parent="ngl5nq17TZZWhM0TqUHY-57" vertex="1">
          <mxGeometry width="140" height="85" as="geometry">
            <mxRectangle width="140" height="85" as="alternateBounds" />
          </mxGeometry>
        </mxCell>
        <mxCell id="ngl5nq17TZZWhM0TqUHY-59" value="If the increase is &amp;gt; 50 degrees" style="shape=partialRectangle;html=1;whiteSpace=wrap;connectable=0;strokeColor=inherit;overflow=hidden;fillColor=none;top=0;left=0;bottom=0;right=0;pointerEvents=1;" parent="ngl5nq17TZZWhM0TqUHY-57" vertex="1">
          <mxGeometry x="140" width="140" height="85" as="geometry">
            <mxRectangle width="140" height="85" as="alternateBounds" />
          </mxGeometry>
        </mxCell>
        <mxCell id="ngl5nq17TZZWhM0TqUHY-60" value="&quot;Reduce the fryer heat&quot;" style="shape=partialRectangle;html=1;whiteSpace=wrap;connectable=0;strokeColor=inherit;overflow=hidden;fillColor=none;top=0;left=0;bottom=0;right=0;pointerEvents=1;" parent="ngl5nq17TZZWhM0TqUHY-57" vertex="1">
          <mxGeometry x="280" width="140" height="85" as="geometry">
            <mxRectangle width="140" height="85" as="alternateBounds" />
          </mxGeometry>
        </mxCell>
        <mxCell id="ngl5nq17TZZWhM0TqUHY-61" value="" style="shape=tableRow;horizontal=0;startSize=0;swimlaneHead=0;swimlaneBody=0;strokeColor=inherit;top=0;left=0;bottom=0;right=0;collapsible=0;dropTarget=0;fillColor=none;points=[[0,0.5],[1,0.5]];portConstraint=eastwest;" parent="ngl5nq17TZZWhM0TqUHY-52" vertex="1">
          <mxGeometry y="161" width="420" height="84" as="geometry" />
        </mxCell>
        <mxCell id="ngl5nq17TZZWhM0TqUHY-62" value="Oil temperature" style="shape=partialRectangle;html=1;whiteSpace=wrap;connectable=0;strokeColor=inherit;overflow=hidden;fillColor=none;top=0;left=0;bottom=0;right=0;pointerEvents=1;" parent="ngl5nq17TZZWhM0TqUHY-61" vertex="1">
          <mxGeometry width="140" height="84" as="geometry">
            <mxRectangle width="140" height="84" as="alternateBounds" />
          </mxGeometry>
        </mxCell>
        <mxCell id="ngl5nq17TZZWhM0TqUHY-63" value="if the increase temperature &amp;lt; 10 degrees" style="shape=partialRectangle;html=1;whiteSpace=wrap;connectable=0;strokeColor=inherit;overflow=hidden;fillColor=none;top=0;left=0;bottom=0;right=0;pointerEvents=1;" parent="ngl5nq17TZZWhM0TqUHY-61" vertex="1">
          <mxGeometry x="140" width="140" height="84" as="geometry">
            <mxRectangle width="140" height="84" as="alternateBounds" />
          </mxGeometry>
        </mxCell>
        <mxCell id="ngl5nq17TZZWhM0TqUHY-64" value="&quot;Increase the fryer heat&quot;" style="shape=partialRectangle;html=1;whiteSpace=wrap;connectable=0;strokeColor=inherit;overflow=hidden;fillColor=none;top=0;left=0;bottom=0;right=0;pointerEvents=1;" parent="ngl5nq17TZZWhM0TqUHY-61" vertex="1">
          <mxGeometry x="280" width="140" height="84" as="geometry">
            <mxRectangle width="140" height="84" as="alternateBounds" />
          </mxGeometry>
        </mxCell>
        <mxCell id="ngl5nq17TZZWhM0TqUHY-65" value="" style="shape=tableRow;horizontal=0;startSize=0;swimlaneHead=0;swimlaneBody=0;strokeColor=inherit;top=0;left=0;bottom=0;right=0;collapsible=0;dropTarget=0;fillColor=none;points=[[0,0.5],[1,0.5]];portConstraint=eastwest;" parent="ngl5nq17TZZWhM0TqUHY-52" vertex="1">
          <mxGeometry y="245" width="420" height="85" as="geometry" />
        </mxCell>
        <mxCell id="ngl5nq17TZZWhM0TqUHY-66" value="Min and Max temperature" style="shape=partialRectangle;html=1;whiteSpace=wrap;connectable=0;strokeColor=inherit;overflow=hidden;fillColor=none;top=0;left=0;bottom=0;right=0;pointerEvents=1;" parent="ngl5nq17TZZWhM0TqUHY-65" vertex="1">
          <mxGeometry width="140" height="85" as="geometry">
            <mxRectangle width="140" height="85" as="alternateBounds" />
          </mxGeometry>
        </mxCell>
        <mxCell id="ngl5nq17TZZWhM0TqUHY-67" value="If the oil temperature is between 150 and 190 degrees&lt;div&gt;If the not within the expected range&amp;nbsp; &amp;nbsp;&lt;/div&gt;" style="shape=partialRectangle;html=1;whiteSpace=wrap;connectable=0;strokeColor=inherit;overflow=hidden;fillColor=none;top=0;left=0;bottom=0;right=0;pointerEvents=1;" parent="ngl5nq17TZZWhM0TqUHY-65" vertex="1">
          <mxGeometry x="140" width="140" height="85" as="geometry">
            <mxRectangle width="140" height="85" as="alternateBounds" />
          </mxGeometry>
        </mxCell>
        <mxCell id="ngl5nq17TZZWhM0TqUHY-68" value="Display: &quot;You may start frying the Magwinya&quot;&lt;div&gt;&lt;br&gt;&lt;div&gt;Display:&quot; Oil is not ready for frying&quot;&lt;/div&gt;&lt;/div&gt;" style="shape=partialRectangle;html=1;whiteSpace=wrap;connectable=0;strokeColor=inherit;overflow=hidden;fillColor=none;top=0;left=0;bottom=0;right=0;pointerEvents=1;" parent="ngl5nq17TZZWhM0TqUHY-65" vertex="1">
          <mxGeometry x="280" width="140" height="85" as="geometry">
            <mxRectangle width="140" height="85" as="alternateBounds" />
          </mxGeometry>
        </mxCell>
      </root>
    </mxGraphModel>
  </diagram>
</mxfile>
